<svg width="40" height="23" viewBox="0 0 40 23" fill="none" xmlns="http://www.w3.org/2000/svg">
<path d="M37.8667 0H2.13333C0.955126 0 0 0.874518 0 1.95329V21.0467C0 22.1255 0.955126 23 2.13333 23H37.8667C39.0449 23 40 22.1255 40 21.0467V1.95329C40 0.874518 39.0449 0 37.8667 0Z" fill="#0E4C96"/>
<path fill-rule="evenodd" clip-rule="evenodd" d="M32.9071 16.9448C32.9071 18.9469 31.1471 20.6072 28.9071 20.6072H7.09375V6.05518C7.09375 4.05306 8.85375 2.39276 11.0938 2.39276H32.9071V16.9448Z" fill="white"/>
<path fill-rule="evenodd" clip-rule="evenodd" d="M25.8134 11.8174H27.6801C28.3201 11.9639 28.4801 12.7941 27.8934 13.087C27.5201 13.2824 27.0401 13.1847 26.6668 13.1847H25.8134V11.8174ZM28.0534 10.2548C28.1601 10.6943 27.6801 11.0849 27.2534 11.0361H25.8134V9.76645H27.5201C27.7868 9.81528 28.0001 10.0106 28.0534 10.2548ZM31.4668 3.61359V16.896C31.4668 18.2144 30.1868 19.3376 28.7468 19.3864H24.4268V14.0149H29.1201C29.8668 13.966 30.6668 13.5265 30.6668 12.7941C30.7734 12.0616 30.0268 11.5732 29.2801 11.4756C29.0134 11.4756 29.0134 11.3779 29.2801 11.3779C29.9734 11.2314 30.5068 10.5966 30.2934 9.91295C30.1334 9.2293 29.3334 8.98514 28.6401 8.98514H24.4268V5.95754C24.5334 4.6879 25.8668 3.61359 27.2534 3.61359H31.4668Z" fill="url(#paint0_linear_46_426)"/>
<path fill-rule="evenodd" clip-rule="evenodd" d="M8.5338 6.10403C8.5338 4.78556 9.86714 3.61359 11.3071 3.61359H15.5738V16.9448C15.5205 18.2144 14.2405 19.3376 12.8538 19.3864H8.5338V13.8684C9.92047 14.1614 11.3605 14.259 12.8005 14.0637C13.6538 13.966 14.6138 13.5754 14.8805 12.7452C15.0938 12.0616 14.9871 11.3291 14.9871 10.6454V8.98514H12.5338V12.2569C12.4271 12.9405 11.7338 13.3312 11.0405 13.3312C10.1871 13.3312 8.48047 12.7452 8.48047 12.7452L8.5338 6.10403Z" fill="url(#paint1_linear_46_426)"/>
<path fill-rule="evenodd" clip-rule="evenodd" d="M16.5335 9.61997C16.3735 9.6688 16.4801 9.22931 16.4801 9.08282V5.95755C16.5868 4.63908 17.9201 3.56477 19.3601 3.6136H23.5201V16.9448C23.4668 18.2145 22.1868 19.3376 20.8001 19.3864H16.4801V13.3312C17.4401 14.0637 18.7735 14.1614 20.0001 14.1614C20.9068 14.1614 21.8668 14.0637 22.7201 13.8684V12.7452C21.7068 13.1847 20.5335 13.4777 19.4135 13.2336C18.6668 13.0382 18.0801 12.3546 18.0801 11.6221C17.9735 10.8408 18.5068 10.0595 19.3068 9.8153C20.3201 9.52231 21.4401 9.71763 22.4001 10.1083C22.6135 10.206 22.8268 10.3525 22.7201 10.0106V9.13165C21.1201 8.78982 19.4135 8.69216 17.8135 9.03398C17.3335 9.18048 16.9068 9.37581 16.5335 9.61997Z" fill="url(#paint2_linear_46_426)"/>
<defs>
<linearGradient id="paint0_linear_46_426" x1="24.4268" y1="11.5" x2="31.4668" y2="11.5" gradientUnits="userSpaceOnUse">
<stop stop-color="#007B40"/>
<stop offset="1" stop-color="#55B330"/>
</linearGradient>
<linearGradient id="paint1_linear_46_426" x1="8.48047" y1="11.5" x2="15.5738" y2="11.5" gradientUnits="userSpaceOnUse">
<stop stop-color="#1D2970"/>
<stop offset="1" stop-color="#006DBA"/>
</linearGradient>
<linearGradient id="paint2_linear_46_426" x1="16.4453" y1="11.4992" x2="23.5201" y2="11.4992" gradientUnits="userSpaceOnUse">
<stop stop-color="#6E2B2F"/>
<stop offset="1" stop-color="#E30138"/>
</linearGradient>
</defs>
</svg>
