<?xml version="1.0" encoding="utf-8"?>
<!-- Generator: Adobe Illustrator 19.2.0, SVG Export Plug-In . SVG Version: 6.00 Build 0)  -->
<svg version="1.1" id="Layer_1" xmlns="http://www.w3.org/2000/svg" xmlns:xlink="http://www.w3.org/1999/xlink" x="0px" y="0px"
	 viewBox="0 0 20 20" style="enable-background:new 0 0 20 20;" xml:space="preserve">
<style type="text/css">
	.st0{fill:#008288;}
</style>
<title>06</title>
<path class="st0" d="M4.4,13.9h2.6c0.4,0,0.7-0.3,0.7-0.7c0-0.4-0.3-0.7-0.7-0.7H4.4c-1.7,0-3-1.3-3-3s1.3-3,3-3h0.6
	c0.4,0,0.6-0.3,0.7-0.6c0.2-2.5,2.5-4.5,5.1-4.5c2.7,0,4.9,2,5.1,4.7c0,0.3,0.2,0.5,0.5,0.6c1.6,0.5,2.4,2.2,1.9,3.8
	c-0.4,1.2-1.6,2.1-2.9,2.1h-2.6c-0.4,0-0.7,0.3-0.7,0.7c0,0.4,0.3,0.7,0.7,0.7h2.6c2.4,0,4.4-2,4.3-4.4c0-1.7-1-3.3-2.6-4
	c-0.5-3.5-3.8-6-7.4-5.5C7.1,0.5,4.9,2.5,4.3,5.2C1.9,5.2,0,7.1,0,9.5C0,11.9,2,13.9,4.4,13.9L4.4,13.9z"/>
<path class="st0" d="M9.9,8.8c-0.4,0-0.7,0.3-0.7,0.7v7l-1.8-1.7c-0.3-0.3-0.7-0.3-1,0c-0.3,0.3-0.3,0.7,0,1c0,0,0,0,0,0l2.9,2.8
	c0.3,0.2,0.7,0.2,0.9,0l2.9-2.8c0.2-0.3,0.2-0.7-0.1-1c-0.2-0.2-0.5-0.2-0.8,0l-1.8,1.7v-7C10.5,9.1,10.2,8.8,9.9,8.8z"/>
</svg>
