<svg version="1.1" id="Layer_1" xmlns="http://www.w3.org/2000/svg" x="0px" y="0px"
	 viewBox="0 0 62 62" xml:space="preserve">
<g>
	<g>
		<path fill="#008288" d="M61,15.6c0.1,0.5,0,0.9-0.3,1.3s-0.7,0.7-1.2,0.8c-7.3,1-11,4.4-11,10.2H55c0.5,0,0.9,0.2,1.2,0.5s0.5,0.7,0.5,1.2v24.6
			c0,0.5-0.2,0.9-0.5,1.3C55.9,55.8,55.5,56,55,56H34.4c-0.5,0-0.9-0.2-1.2-0.5c-0.4-0.3-0.5-0.8-0.5-1.3V33
			c0-8.4,2.1-14.9,6.2-19.3s10.3-6.8,18.6-7.2c0.4,0,0.8,0.1,1.1,0.3c0.3,0.3,0.6,0.6,0.6,1L61,15.6L61,15.6z M29.1,15.6
			c0.1,0.5,0,0.9-0.3,1.3c-0.3,0.5-0.7,0.7-1.2,0.8c-7.3,1-11,4.4-11,10.2h6.6c0.5,0,0.9,0.2,1.2,0.5s0.5,0.7,0.5,1.2v24.6
			c0,0.5-0.2,0.9-0.5,1.3c-0.3,0.3-0.7,0.5-1.2,0.5H2.6c-0.5,0-0.9-0.2-1.2-0.5c-0.4-0.3-0.5-0.8-0.5-1.3V33
			c0-8.4,2.1-14.9,6.2-19.3s10.3-6.9,18.6-7.3c0.4,0,0.8,0.1,1.1,0.3c0.3,0.3,0.6,0.6,0.6,1L29.1,15.6z"/>
	</g>
</g>
</svg>
