<?xml version="1.0" encoding="utf-8"?>
<!-- Generator: Adobe Illustrator 19.2.0, SVG Export Plug-In . SVG Version: 6.00 Build 0)  -->
<svg version="1.1" id="Layer_1" xmlns="http://www.w3.org/2000/svg" xmlns:xlink="http://www.w3.org/1999/xlink" x="0px" y="0px"
	 viewBox="0 0 62 62" style="enable-background:new 0 0 62 62;" xml:space="preserve">
<style type="text/css">
	.st0{fill:#008288;}
</style>
<g>
	<g>
		<path class="st0" d="M36.1,25.4L51,6.1c0.2-0.5,0.2-0.9,0-1.4c-0.5-0.5-0.9-0.5-1.4-0.2l-11.4,6.6c-4.5,2.6-8.3,6.4-11.1,10.9
			l3.6,3.1h5.5L36.1,25.4L36.1,25.4z"/>
		<path class="st0" d="M24.7,36.5l-3.6-3.8L18,38.2c-0.9-0.2-1.9-0.5-2.8-0.5c-3.1,0-5.9,1.4-7.8,3.8c-3.3,4.3-2.6,10.4,1.7,14
			c1.7,1.4,3.8,2.1,6.2,2.1c3.1,0,5.9-1.4,7.8-3.8c2.8-3.6,2.8-8.5,0.2-12.1l4-5L24.7,36.5z M20,51.4c-1.9,2.6-5.9,3.1-8.3,0.9
			c-2.6-2.1-3.1-5.7-0.9-8.3c1.2-1.4,2.8-2.4,4.7-2.4c1.4,0,2.6,0.5,3.8,1.2C21.4,45,21.9,48.8,20,51.4L20,51.4z"/>
		<path class="st0" d="M61.2,28.9c0-0.5-0.5-0.9-1.2-0.9l-30.1-0.7l0,0l-10.2-8.8c0.7-1.4,0.9-3.3,0.9-5c-0.2-2.6-1.4-5-3.6-6.6
			c-1.9-1.4-4-2.4-6.4-2.4C7.9,4.5,5,5.7,3.1,8c-3.6,4.3-2.8,10.4,1.2,14c1.9,1.4,4,2.4,6.4,2.4c1.7,0,3.3-0.5,4.7-1.2l10.2,11.4
			c0.9,0,24.9,0.7,26.3,0l8.5-4.5C61,29.9,61.5,29.4,61.2,28.9L61.2,28.9z M15.2,18.2c-2.1,2.4-5.9,2.8-8.3,0.7
			c-2.6-2.1-2.8-5.9-0.7-8.3C7.4,9.2,9,8.5,10.7,8.5c1.4,0,2.8,0.5,3.8,1.4c1.2,0.9,1.9,2.4,2.1,4C16.7,15.4,16.2,17.1,15.2,18.2
			L15.2,18.2z M29.7,31.3c-0.7,0.9-2.1,1.4-3.3,0.7c0,0,0,0-0.2,0c-0.5-0.2-0.7-0.7-0.9-1.2c-0.2-0.7-0.2-1.7,0.2-2.4
			c0.7-1.2,2.4-1.4,3.3-0.5l0,0c0.5,0.5,0.9,0.9,0.9,1.7C30.2,30.1,29.9,30.8,29.7,31.3L29.7,31.3z"/>
	</g>
</g>
</svg>
