<?xml version="1.0" encoding="utf-8"?>
<!-- Generator: Adobe Illustrator 19.2.0, SVG Export Plug-In . SVG Version: 6.00 Build 0)  -->
<svg version="1.1" id="Layer_1" xmlns="http://www.w3.org/2000/svg" xmlns:xlink="http://www.w3.org/1999/xlink" x="0px" y="0px"
	 viewBox="0 0 62 62" style="enable-background:new 0 0 62 62;" xml:space="preserve">
<style type="text/css">
	.st0{fill:#FFFFFF;}
</style>
<g>
	<path class="st0" d="M58.5,7.2L58.5,7.2c-0.7-0.1-1.3,0-1.9,0.4c-0.6,0.4-1,0.9-1.1,1.6l-1.3,6.2c-2.4-3.8-5.8-7-9.7-9.3
		c-4.3-2.4-9.1-3.7-14-3.7C14.9,2.4,2.3,15,2.3,30.5c0,1.4,1.1,2.5,2.5,2.5s2.5-1.1,2.5-2.5c0-12.7,10.3-23,23-23
		c7.9,0,15.2,4.1,19.4,10.7l-6.2-1.3c-1.4-0.3-2.7,0.6-3,2c-0.3,1.4,0.6,2.7,2,3l12.2,2.6c0.2,0.1,0.5,0.1,0.7,0
		c0.4,0,0.8-0.2,1.2-0.4c0.6-0.4,1-0.9,1.1-1.6l2.6-12.2C60.7,8.9,59.9,7.5,58.5,7.2z"/>
	<path class="st0" d="M58.1,28c-0.5-0.5-1.1-0.7-1.8-0.7c-1.4,0-2.5,1.2-2.4,2.6c0.2,6.2-2,12-6.2,16.5c-4.2,4.5-9.9,7.1-16.1,7.3
		c-0.3,0-0.5,0-0.8,0c-3.9,0-7.8-1-11.2-2.9c-3.1-1.7-5.8-4.2-7.8-7.1l6.4,1.7c1.4,0.4,2.7-0.4,3.1-1.8c0.2-0.7,0.1-1.3-0.3-1.9
		c-0.3-0.6-0.9-1-1.5-1.2L7.4,37.3c-0.7-0.2-1.3-0.1-1.9,0.3c-0.6,0.3-1,0.9-1.2,1.5L1.1,51.1c-0.4,1.4,0.4,2.7,1.8,3.1
		c0.2,0.1,0.4,0.1,0.7,0.1c1.1,0,2.2-0.8,2.4-1.9l1.6-5.9c2.5,3.6,5.8,6.7,9.7,8.8c4.1,2.3,8.8,3.5,13.6,3.5c0.3,0,0.6,0,0.9,0
		c7.5-0.2,14.5-3.4,19.6-8.9s7.8-12.6,7.6-20.1C58.9,29.1,58.6,28.5,58.1,28z"/>
</g>
</svg>
