<svg width="40" height="23" viewBox="0 0 40 23" fill="none" xmlns="http://www.w3.org/2000/svg">
<path d="M37.8667 0H2.13333C0.955126 0 0 0.874518 0 1.95329V21.0467C0 22.1255 0.955126 23 2.13333 23H37.8667C39.0449 23 40 22.1255 40 21.0467V1.95329C40 0.874518 39.0449 0 37.8667 0Z" fill="#F4F4F4"/>
<path fill-rule="evenodd" clip-rule="evenodd" d="M33.0137 20.6072L32.8537 20.656C32.831 20.6744 32.8128 20.6969 32.8004 20.7222C32.7879 20.7474 32.7815 20.7748 32.7815 20.8025C32.7815 20.8302 32.7879 20.8576 32.8004 20.8829C32.8128 20.9082 32.831 20.9307 32.8537 20.949C32.8737 20.9698 32.8984 20.9865 32.9259 20.9979C32.9535 21.0093 32.9834 21.0152 33.0137 21.0152C33.044 21.0152 33.0739 21.0093 33.1015 20.9979C33.1291 20.9865 33.1537 20.9698 33.1737 20.949C33.1964 20.9307 33.2146 20.9082 33.227 20.8829C33.2395 20.8576 33.2459 20.8302 33.2459 20.8025C33.2459 20.7748 33.2395 20.7474 33.227 20.7222C33.2146 20.6969 33.1964 20.6744 33.1737 20.656L33.0137 20.6072ZM33.0137 20.949C32.9713 20.949 32.9306 20.9336 32.9006 20.9061C32.8706 20.8786 32.8537 20.8414 32.8537 20.8025C32.8537 20.7637 32.8706 20.7264 32.9006 20.6989C32.9306 20.6715 32.9713 20.656 33.0137 20.656C33.0561 20.656 33.0968 20.6715 33.1269 20.6989C33.1569 20.7264 33.1737 20.7637 33.1737 20.8025C33.1737 20.8414 33.1569 20.8786 33.1269 20.9061C33.0968 20.9336 33.0561 20.949 33.0137 20.949ZM33.0137 20.7049H32.907V20.9002H32.9604V20.8514L33.0137 20.9002H33.067L33.0137 20.8514L33.067 20.8025V20.7537L33.0137 20.7049ZM33.0137 20.7537L33.067 20.8025H32.9604V20.7537H33.0137ZM8.53371 20.9002H8.05371V18.8981H8.53371V19.1422C8.53371 19.1422 8.96038 18.8492 9.17371 18.8492C9.65371 18.8492 9.92038 19.1911 9.92038 19.1911C9.92038 19.1911 10.1337 18.8492 10.667 18.8492C11.4137 18.8492 11.5204 19.4841 11.5204 19.4841V20.9002H11.0404V19.6306C11.0404 19.6306 11.0404 19.2399 10.5604 19.2399C10.0804 19.2399 10.027 19.6306 10.027 19.6306V20.9002H9.54704V19.6306C9.54704 19.6306 9.49371 19.2399 9.12038 19.2399C8.53371 19.2399 8.53371 19.6306 8.53371 19.6306V20.9002ZM22.7204 18.8492C22.507 18.8492 22.0804 19.1422 22.0804 19.1422V18.8981H21.6537V20.9002H22.1337L22.0804 19.6306C22.0804 19.6306 22.1337 19.2399 22.667 19.2399L22.8804 19.2887L23.0404 18.8981L22.7204 18.8492ZM29.3337 18.8492C29.067 18.8492 28.6937 19.1422 28.6937 19.1422V18.8981H28.2137V20.9002H28.6937V19.6306C28.6937 19.6306 28.6937 19.2399 29.227 19.2399L29.4937 19.2887L29.6537 18.8981L29.3337 18.8492ZM13.0137 18.8492C12.3204 18.8492 11.947 19.3864 11.947 19.8747C11.947 20.363 12.3737 20.949 13.067 20.949C13.4404 20.949 13.7604 20.7049 13.7604 20.7049V20.9002H14.187V18.8981H13.7604V19.1422C13.7604 19.1422 13.4404 18.8492 13.0137 18.8492ZM13.1204 19.2399C13.4937 19.2399 13.8137 19.5329 13.8137 19.9236C13.8137 20.2654 13.4937 20.5584 13.1204 20.5584C12.747 20.5584 12.427 20.2654 12.427 19.9236C12.427 19.5329 12.747 19.2399 13.1204 19.2399ZM26.4004 18.8492C25.707 18.8492 25.3337 19.3864 25.3337 19.8747C25.3337 20.363 25.7604 20.949 26.4537 20.949C26.827 20.949 27.147 20.7049 27.147 20.7049V20.9002H27.627V18.8981H27.147V19.1422C27.147 19.1422 26.827 18.8492 26.4004 18.8492ZM26.507 19.2399C26.8804 19.2399 27.2004 19.5329 27.2004 19.9236C27.2004 20.2654 26.8804 20.5584 26.507 20.5584C26.1337 20.5584 25.8137 20.2654 25.8137 19.9236C25.8137 19.5329 26.1337 19.2399 26.507 19.2399ZM30.827 18.8492C30.1337 18.8492 29.7604 19.3864 29.7604 19.8747C29.7604 20.363 30.187 20.949 30.8804 20.949C31.2537 20.949 31.5737 20.7049 31.5737 20.7049V20.9002H32.0537V18.1168H31.5737V19.1422C31.5737 19.1422 31.2537 18.8492 30.827 18.8492ZM30.9337 19.2399C31.307 19.2399 31.627 19.5329 31.627 19.9236C31.627 20.2654 31.307 20.5584 30.9337 20.5584C30.5604 20.5584 30.2404 20.2654 30.2404 19.9236C30.2404 19.5329 30.5604 19.2399 30.9337 19.2399ZM15.627 20.949C15.147 20.949 14.7204 20.7049 14.7204 20.7049L14.8804 20.4119C14.8804 20.4119 15.307 20.5584 15.627 20.5584C15.787 20.5584 16.107 20.5095 16.1604 20.363C16.1604 20.1677 15.5737 20.1189 15.5737 20.1189C15.5737 20.1189 14.7737 20.0701 14.7737 19.4841C14.7737 19.0934 15.2004 18.8492 15.6804 18.8492C16.0004 18.8492 16.587 19.0934 16.587 19.0934L16.3204 19.3864L15.6804 19.2399C15.467 19.2399 15.2537 19.3376 15.2537 19.4841C15.2537 19.8747 16.587 19.4352 16.587 20.3142C16.587 20.8514 16.0537 20.949 15.627 20.949ZM17.387 18.3121V18.8981H16.9604V19.3376H17.387V20.3142C17.387 20.3142 17.3337 20.9979 18.1337 20.9979L18.7737 20.8514L18.6137 20.4119C18.6137 20.4119 18.4004 20.5584 18.2404 20.5584C17.867 20.5095 17.867 20.3142 17.867 20.3142V19.3376H18.6137V18.8981H17.867V18.3121H17.387ZM20.1604 18.8492C19.3604 18.8492 18.987 19.4352 19.0404 19.9236C19.0404 20.4119 19.3604 20.9979 20.1604 20.9979C20.5337 20.9979 21.0137 20.7049 21.0137 20.7049L20.8004 20.363C20.8004 20.363 20.4804 20.6072 20.1604 20.6072C19.5737 20.6072 19.5204 20.0701 19.5204 20.0701H21.1204C21.1204 20.0701 21.2804 18.8492 20.1604 18.8492ZM20.0537 19.2399H20.107C20.6937 19.2399 20.6937 19.7282 20.6937 19.7282H19.5204C19.5204 19.7282 19.5204 19.2887 20.0537 19.2399ZM24.8537 20.363L25.067 20.7537C25.067 20.7537 24.747 20.949 24.3737 20.949C23.5737 20.949 23.147 20.4119 23.147 19.8747C23.147 19.0934 23.8404 18.8492 24.3204 18.8492C24.747 18.8492 25.1204 19.0934 25.1204 19.0934L24.8537 19.4841C24.8537 19.4841 24.747 19.2399 24.3204 19.2399C23.8937 19.2399 23.627 19.5817 23.627 19.9236C23.627 20.2654 23.8937 20.5584 24.3204 20.5584C24.587 20.5584 24.8537 20.363 24.8537 20.363Z" fill="black"/>
<path fill-rule="evenodd" clip-rule="evenodd" d="M33.3334 13.6242V13.3312H33.2267L33.12 13.5266L33.0667 13.3312H32.96V13.6242H33.0134V13.3801L33.12 13.5754H33.1734L33.2267 13.3801V13.6242H33.3334ZM32.8 13.6242V13.3801H32.9067V13.3312H32.6934V13.3801H32.7467V13.6242H32.8Z" fill="#F79F1A"/>
<path fill-rule="evenodd" clip-rule="evenodd" d="M33.3335 9.61996C33.3335 11.6209 32.4654 13.5399 30.9201 14.9548C29.3748 16.3697 27.2789 17.1645 25.0935 17.1645C22.9081 17.1645 20.8123 16.3697 19.267 14.9548C17.7217 13.5399 16.8535 11.6209 16.8535 9.61996C16.8535 7.61902 17.7217 5.70002 19.267 4.28514C20.8123 2.87025 22.9081 2.07538 25.0935 2.07538C27.2789 2.07538 29.3748 2.87025 30.9201 4.28514C32.4654 5.70002 33.3335 7.61902 33.3335 9.61996Z" fill="#F79F1A"/>
<path fill-rule="evenodd" clip-rule="evenodd" d="M23.147 9.61996C23.147 11.6209 22.2789 13.5399 20.7336 14.9548C19.1883 16.3697 17.0924 17.1645 14.907 17.1645C12.7216 17.1645 10.6257 16.3697 9.08043 14.9548C7.53513 13.5399 6.66699 11.6209 6.66699 9.61996C6.66699 7.61902 7.53513 5.70002 9.08043 4.28514C10.6257 2.87025 12.7216 2.07538 14.907 2.07538C17.0924 2.07538 19.1883 2.87025 20.7336 4.28514C22.2789 5.70002 23.147 7.61902 23.147 9.61996Z" fill="#EA001B"/>
<path fill-rule="evenodd" clip-rule="evenodd" d="M19.9999 3.66241C19.0228 4.37106 18.2334 5.27285 17.6908 6.3003C17.1481 7.32774 16.8662 8.45425 16.8662 9.59554C16.8662 10.7368 17.1481 11.8633 17.6908 12.8908C18.2334 13.9182 19.0228 14.82 19.9999 15.5287C20.977 14.82 21.7664 13.9182 22.3091 12.8908C22.8517 11.8633 23.1336 10.7368 23.1336 9.59554C23.1336 8.45425 22.8517 7.32774 22.3091 6.3003C21.7664 5.27285 20.977 4.37106 19.9999 3.66241Z" fill="#FF5F01"/>
</svg>
