<svg width="40" height="23" viewBox="0 0 40 23" fill="none" xmlns="http://www.w3.org/2000/svg">
<path d="M37.8187 0H2.18039C1.00532 0 0.0527344 0.874518 0.0527344 1.95329V21.0467C0.0527344 22.1255 1.00532 23 2.18039 23H37.8187C38.9938 23 39.9464 22.1255 39.9464 21.0467V1.95329C39.9464 0.874518 38.9938 0 37.8187 0Z" fill="#2557D6"/>
<path fill-rule="evenodd" clip-rule="evenodd" d="M0.0527344 10.7919H1.96763L2.39316 9.86414H3.35061L3.77614 10.7919H7.55273V10.0595L7.92507 10.7919H9.83997L10.2123 10.0595V10.7919H19.574V9.22932H19.7336C19.8932 9.22932 19.8932 9.22932 19.8932 9.42464V10.7919H24.7336V10.4501C25.1591 10.6455 25.7442 10.7919 26.5421 10.7919H28.6166L29.0421 9.86414H29.9995L30.4251 10.7919H34.3612V9.91297L34.9464 10.7919H38.0846V4.83441H34.9995V5.51806L34.5208 4.83441H31.3293V5.51806L30.957 4.83441H26.6485C25.9038 4.83441 25.2655 4.93208 24.7336 5.17624V4.83441H21.7549V5.17624C21.4357 4.88324 21.0102 4.83441 20.5315 4.83441H9.6272L8.88252 6.34821L8.13784 4.83441H4.73359V5.51806L4.36124 4.83441H1.43571L0.0527344 7.66668V10.7919ZM12.1272 9.9618H11.0102V6.59237L9.36124 9.9618H8.4038L6.75486 6.59237V9.9618H4.46763L4.0421 8.98515H1.70167L1.27614 9.9618H0.0527344L2.07401 5.66456H3.72295L5.63784 9.71764V5.66456H7.44635L8.93571 8.54566L10.2655 5.66456H12.1272V9.9618ZM3.66976 8.10617L2.87188 6.39704L2.1272 8.10617H3.66976ZM16.7017 9.9618H12.9783V5.66456H16.7017V6.54354H14.0953V7.32486H16.6485V8.20384H14.0953V9.03399H16.7017V9.9618ZM22.0208 6.7877C22.0208 7.47135 21.4889 7.86201 21.2229 7.95968C21.4357 8.00851 21.6485 8.20384 21.7549 8.3015C21.9144 8.54566 21.9676 8.69216 21.9676 9.08282V9.9618H20.7974V9.37581C20.7974 9.13165 20.8506 8.78983 20.6378 8.54566C20.4783 8.39917 20.2123 8.39917 19.84 8.39917H18.6166V9.9618H17.4995V5.66456H20.0527C20.6378 5.66456 21.0634 5.66456 21.4357 5.85989C21.8081 6.05522 22.0208 6.34821 22.0208 6.7877ZM20.5846 7.42252C20.4251 7.52019 20.2655 7.52019 20.0527 7.52019H18.6698V6.59237H20.0527L20.5846 6.64121C20.7442 6.73887 20.7974 6.83653 20.7974 7.03186C20.7974 7.22719 20.7442 7.37369 20.5846 7.42252ZM23.7761 9.9618H22.6591V5.66456H23.7761V9.9618ZM37.074 9.9618H35.4783L33.3506 6.73887V9.9618H31.0634L30.6378 8.98515H28.2974L27.8719 9.9618H26.5953C26.0634 9.9618 25.3719 9.8153 24.9464 9.47348C24.574 9.08282 24.3612 8.5945 24.3612 7.81318C24.3612 7.17836 24.4676 6.59237 24.9464 6.15288C25.3187 5.81106 25.9038 5.66456 26.6485 5.66456H27.7655V6.54354H26.7017C26.2761 6.54354 26.0634 6.64121 25.8506 6.83653C25.6378 6.98303 25.5315 7.32486 25.5315 7.81318C25.5315 8.25267 25.5846 8.5945 25.7974 8.78983C26.0102 8.98515 26.2761 9.03399 26.5953 9.03399H27.074L28.6698 5.66456H30.3719L32.2336 9.71764V5.66456H33.9889L35.957 8.64333V5.66456H37.074V9.9618ZM30.2655 8.10617L29.4676 6.39704L28.7229 8.10617H30.2655ZM39.9464 16.7983C39.6804 17.1401 39.1485 17.3355 38.4038 17.3355H36.2761V16.4077H38.4038C38.6166 16.4077 38.7761 16.4077 38.8825 16.31L38.9889 16.017L38.8825 15.724L38.457 15.6752C37.3932 15.6263 36.1166 15.6752 36.1166 14.3079C36.1166 13.7219 36.5421 13.0382 37.7123 13.0382H39.9464V12.2081H37.8719C37.2336 12.2081 36.8081 12.3057 36.4889 12.5499V12.2081H33.4038C32.9251 12.2081 32.34 12.3057 32.074 12.5499V12.2081H26.5953V12.5499C26.1166 12.2569 25.4251 12.2081 25.0527 12.2081H21.4357V12.5499C21.1166 12.2569 20.3187 12.2081 19.84 12.2081H15.7974L14.8932 13.0871L14.0421 12.2081H7.97827V18.1656H13.9357L14.84 17.2378L15.7442 18.1656H19.4144V16.7495H19.7868C20.2655 16.7983 20.8506 16.7495 21.3293 16.5542V18.1656H24.3612V16.603H24.5208C24.6804 16.603 24.6804 16.603 24.6804 16.7983V18.1656H33.8825C34.4676 18.1656 35.0527 18.0191 35.3719 17.775V18.1656H38.2974C38.8825 18.1656 39.5208 18.1168 39.9464 17.9215V16.7983ZM21.7549 14.5032C21.7549 15.6752 20.7974 15.9193 19.84 15.9193H18.4038V17.3843H16.2229L14.84 15.9193L13.457 17.3843H8.9889V13.0871H13.5102L14.8932 14.4544L16.3293 13.0871H19.8932C20.7974 13.0871 21.7549 13.2824 21.7549 14.5032ZM12.8719 16.4565H10.1059V15.6263H12.5527V14.7474H10.1059V13.966H12.9251L14.1485 15.1869L12.8719 16.4565ZM17.2868 16.9448L15.5846 15.1869L17.2868 13.5266V16.9448ZM19.84 15.0404H18.4038V13.966H19.84C20.2655 13.966 20.5315 14.1125 20.5315 14.4544C20.5315 14.845 20.2655 15.0404 19.84 15.0404ZM27.4464 13.0871H31.1698V13.966H28.5634V14.7474H31.1166V15.6263H28.5634V16.4565H31.1698V17.3843H27.4464V13.0871ZM26.0102 15.3822C26.2761 15.431 26.4357 15.6263 26.5421 15.724C26.7017 15.9193 26.7549 16.1147 26.7549 16.5053V17.3843H25.6378V16.8472C25.6378 16.5542 25.6378 16.1635 25.4251 15.9682C25.2655 15.8217 24.9995 15.7728 24.6272 15.7728H23.4038V17.3843H22.2868V13.0871H24.8932C25.4251 13.0871 25.8506 13.0871 26.2229 13.2824C26.5953 13.4777 26.8081 13.7219 26.8081 14.2102C26.8081 14.8939 26.2761 15.2845 26.0102 15.3822ZM25.3719 14.845L24.84 14.8939H23.457V13.966H24.84L25.3719 14.0149C25.5315 14.1125 25.5846 14.2102 25.5846 14.4055C25.5846 14.6009 25.5315 14.7474 25.3719 14.845ZM35.4783 15.0892C35.691 15.2845 35.8506 15.5775 35.8506 16.017C35.8506 16.9448 35.2123 17.3843 34.0953 17.3843H31.8612V16.4565H34.0421L34.5208 16.3588L34.6272 16.0658L34.5208 15.7728L34.0953 15.6752C33.0846 15.6263 31.7549 15.724 31.7549 14.3567C31.7549 13.7219 32.1804 13.0871 33.3506 13.0871H35.5846V13.966H33.5634L33.0846 14.0637C32.9783 14.1125 32.9251 14.2102 32.9251 14.3567C32.9251 14.552 33.0315 14.6497 33.191 14.6985L33.6166 14.7474H34.2017C34.84 14.7474 35.2655 14.845 35.4783 15.0892ZM39.9464 13.966H37.9251L37.4464 14.0149C37.34 14.1125 37.2868 14.2102 37.2868 14.3567C37.2868 14.5032 37.3932 14.6009 37.5527 14.6497L37.9783 14.6985H38.5634C39.2017 14.7474 39.574 14.845 39.84 15.0404L39.9464 15.1869V13.966Z" fill="white"/>
</svg>
