<svg width="40" height="23" viewBox="0 0 40 23" fill="none" xmlns="http://www.w3.org/2000/svg">
<path d="M37.8667 0H2.13333C0.955126 0 0 0.874518 0 1.95329V21.0467C0 22.1255 0.955126 23 2.13333 23H37.8667C39.0449 23 40 22.1255 40 21.0467V1.95329C40 0.874518 39.0449 0 37.8667 0Z" fill="#0E4595"/>
<path fill-rule="evenodd" clip-rule="evenodd" d="M14.8267 16.31L16.6401 6.73885H19.4667L17.7067 16.31H14.8267ZM27.9467 6.98301C27.4134 6.78768 26.5067 6.54352 25.3867 6.54352C22.6134 6.54352 20.6401 7.86199 20.5867 9.71762C20.5867 11.0849 22.0267 11.8662 23.0934 12.3057C24.2134 12.794 24.5867 13.087 24.5867 13.5265C24.5867 14.1614 23.6801 14.4543 22.8801 14.4543C21.7067 14.4543 21.1201 14.3078 20.2134 13.9172L19.8401 13.7707L19.4134 15.9193C20.1067 16.2123 21.3334 16.4076 22.6134 16.4565C25.6001 16.4565 27.5201 15.138 27.5734 13.1847C27.5734 12.0616 26.8267 11.2314 25.1734 10.5478C24.1601 10.1083 23.5734 9.81528 23.5734 9.37579C23.5734 8.98513 24.0534 8.54564 25.1734 8.54564C26.1334 8.54564 26.7734 8.74097 27.3067 8.9363L27.5734 9.03396L27.9467 6.98301ZM35.3067 6.73885H33.0667C32.4267 6.73885 31.8934 6.93418 31.5734 7.569L27.3601 16.31H30.3467L30.9334 14.8938H34.6134L34.9334 16.31H37.6001L35.3067 6.73885ZM31.7867 12.9405L32.9067 10.2548L33.3334 9.32696L33.4934 10.1571L34.1334 12.9405H31.7867ZM12.4267 6.73885L9.65339 13.2824L9.33339 11.9639C8.80005 10.4501 7.20005 8.7898 5.38672 7.95965L7.94672 16.31H10.9334L15.4134 6.73885H12.4267Z" fill="white"/>
<path fill-rule="evenodd" clip-rule="evenodd" d="M7.04039 6.73883H2.45372L2.40039 6.98299C5.97372 7.76431 8.32039 9.66877 9.33372 11.9639L8.32039 7.56898C8.16039 6.98299 7.68039 6.78766 7.04039 6.73883Z" fill="#F2AE14"/>
</svg>
