<?xml version="1.0" encoding="utf-8"?>
<!-- Generator: Adobe Illustrator 19.2.0, SVG Export Plug-In . SVG Version: 6.00 Build 0)  -->
<svg version="1.1" id="Layer_1" xmlns="http://www.w3.org/2000/svg" xmlns:xlink="http://www.w3.org/1999/xlink" x="0px" y="0px"
	 viewBox="0 0 62 62" style="enable-background:new 0 0 62 62;" xml:space="preserve">
<style type="text/css">
	.st0{fill:#008288;}
</style>
<g>
	<path class="st0" d="M57.8,33.9c1.2-1.7,1.8-3.7,1.8-5.7c0-2.4-0.9-4.5-2.8-6.3s-4.1-2.7-6.7-2.7h-6.6c1.2-2.3,1.8-4.6,1.8-6.7
		c0-2.8-0.5-4.9-1.3-6.5c-0.9-1.6-2.1-2.8-3.8-3.6s-3.5-1.1-5.6-1.1c-1.3,0-2.4,0.4-3.4,1.3c-1.1,1-1.8,2.3-2.3,3.8
		c-0.5,1.6-0.9,3-1.1,4.4s-0.7,2.4-1.3,3c-1.2,1.2-2.6,2.8-4,4.5c-2.5,3.1-4.2,4.9-5.1,5.4H7.2c-1.3,0-2.5,0.4-3.4,1.3
		s-1.4,1.9-1.4,3.2v22.5c0,1.2,0.5,2.3,1.4,3.2s2.1,1.3,3.4,1.3h10.7c0.6,0,2.3,0.5,5.1,1.4c3,1,5.7,1.8,8,2.3s4.7,0.8,7.1,0.8H43
		c3.5,0,6.3-1,8.4-2.8c2.1-1.9,3.2-4.5,3.1-7.7c1.5-1.8,2.2-3.9,2.2-6.3c0-0.5-0.1-1-0.1-1.5c0.9-1.6,1.4-3.2,1.4-5.1
		C58.1,35.5,58,34.7,57.8,33.9L57.8,33.9z M11.3,50c-0.5,0.4-1,0.6-1.7,0.6C9,50.6,8.4,50.4,8,50c-0.5-0.4-0.7-1-0.7-1.6
		s0.2-1.1,0.7-1.6c0.5-0.4,1-0.6,1.7-0.6c0.6,0,1.2,0.2,1.7,0.6c0.5,0.4,0.7,1,0.7,1.6C12,49,11.7,49.6,11.3,50L11.3,50z M54,31
		c-0.5,1.1-1.2,1.6-2,1.7c0.3,0.4,0.7,1,0.9,1.7s0.3,1.3,0.3,1.9c0,1.6-0.6,3-2,4.2c0.5,0.8,0.7,1.6,0.7,2.4c0,0.9-0.2,1.7-0.6,2.6
		c-0.5,0.9-1,1.5-1.8,1.8c0.1,0.7,0.2,1.3,0.2,1.9c0,3.9-2.4,5.9-7.1,5.9h-4.5c-3.3,0-7.5-0.9-12.7-2.6c-0.1-0.1-0.5-0.2-1.1-0.4
		s-1-0.3-1.3-0.4c-0.3-0.1-0.7-0.2-1.3-0.4c-0.6-0.2-1-0.3-1.4-0.4c-0.3-0.1-0.7-0.2-1.3-0.2c-0.5-0.1-0.9-0.1-1.2-0.1h-1V28.2H18
		c0.4,0,0.9-0.1,1.3-0.3c0.5-0.2,1-0.5,1.5-1s1-0.9,1.4-1.2c0.5-0.4,0.9-0.9,1.5-1.6c0.6-0.6,1-1.1,1.3-1.5s0.7-0.9,1.2-1.5
		s0.7-0.9,0.9-1.1c1.4-1.6,2.3-2.6,2.9-3.2c1-1,1.8-2.3,2.2-3.8c0.5-1.6,0.9-3,1.1-4.4s0.7-2.4,1.4-3c2.4,0,4,0.5,4.7,1.7
		c0.8,1.1,1.2,2.8,1.2,5.1c0,1.4-0.6,3.2-1.8,5.7c-1.2,2.4-1.8,4.3-1.8,5.6h13.1c1.3,0,2.3,0.4,3.3,1.3s1.4,1.9,1.4,3.1
		C54.8,29,54.5,29.9,54,31L54,31z"/>
</g>
</svg>
