<?xml version="1.0" encoding="utf-8"?>
<!-- Generator: Adobe Illustrator 19.2.0, SVG Export Plug-In . SVG Version: 6.00 Build 0)  -->
<svg version="1.1" id="Layer_1" xmlns="http://www.w3.org/2000/svg" xmlns:xlink="http://www.w3.org/1999/xlink" x="0px" y="0px"
	 viewBox="0 0 62 62" style="enable-background:new 0 0 62 62;" xml:space="preserve">
<style type="text/css">
	.st0{fill:#008288;}
</style>
<g>
	<g>
		<path class="st0" d="M31,60.3C14.8,60.3,1.7,47.2,1.7,31S14.8,1.7,31,1.7S60.2,14.9,60.2,31S47.1,60.3,31,60.3z M31,6.5
			C17.4,6.5,6.5,17.5,6.5,31s11,24.5,24.5,24.5s24.5-11,24.5-24.5S44.5,6.5,31,6.5z"/>
	</g>
	<g>
		<path class="st0" d="M26.1,36.7c0,0,2.4,2.3,5.5,2.3c1.7,0,3.2-0.9,3.2-2.7c0-3.8-10.6-3.4-10.6-10.1c0-3.2,2.4-5.7,5.9-6.3V17
			h2.7v2.9c3.6,0.3,5.5,2.3,5.5,2.3l-1.8,3.3c0,0-2.1-1.9-4.9-1.9c-1.9,0-3.3,1.1-3.3,2.7c0,3.7,10.5,3.1,10.5,10.1
			c0,3.2-2.2,5.9-6,6.4v2.9h-2.7v-2.9c-4-0.5-6.3-2.9-6.3-2.9L26.1,36.7z"/>
	</g>
	<g>
		<path class="st0" d="M31,60C14.8,60,1.7,46.9,1.7,30.7S14.8,1.4,31,1.4s29.3,13.1,29.3,29.3S47.1,60,31,60z M31,6.2
			c-13.5,0-24.5,11-24.5,24.5s11,24.5,24.5,24.5s24.5-11,24.5-24.5S44.5,6.2,31,6.2z"/>
	</g>
	<g>
		<path class="st0" d="M26.1,36.4c0,0,2.4,2.3,5.5,2.3c1.7,0,3.2-0.9,3.2-2.7c0-3.8-10.6-3.4-10.6-10.1c0-3.2,2.4-5.7,5.9-6.3v-2.9
			h2.7v2.9c3.6,0.3,5.5,2.3,5.5,2.3l-1.8,3.3c0,0-2.1-1.9-4.9-1.9c-1.9,0-3.3,1.1-3.3,2.7c0,3.7,10.5,3.1,10.5,10.1
			c0,3.2-2.2,5.9-6,6.4v2.9h-2.7v-2.9c-4-0.5-6.3-2.9-6.3-2.9L26.1,36.4z"/>
	</g>
</g>
</svg>
