<?xml version="1.0" encoding="utf-8"?>
<!-- Generator: Adobe Illustrator 19.2.0, SVG Export Plug-In . SVG Version: 6.00 Build 0)  -->
<svg version="1.1" id="Layer_1" xmlns="http://www.w3.org/2000/svg" xmlns:xlink="http://www.w3.org/1999/xlink" x="0px" y="0px"
	 viewBox="0 0 62 62" style="enable-background:new 0 0 62 62;" xml:space="preserve">
<style type="text/css">
	.st0{fill:none;stroke:#008288;stroke-width:5;stroke-miterlimit:10;}
	.st1{clip-path:url(#SVGID_2_);fill:#008288;}
	.st2{clip-path:url(#SVGID_4_);fill:#008288;}
</style>
<circle class="st0" cx="31.2" cy="30.9" r="27.7"/>
<g>
	<g>
		<g>
			<g>
				<defs>
					<rect id="SVGID_1_" x="13.9" y="14.5" width="33.7" height="33.7"/>
				</defs>
				<clipPath id="SVGID_2_">
					<use xlink:href="#SVGID_1_"  style="overflow:visible;"/>
				</clipPath>
				<path class="st1" d="M20.1,37.3l-2.2,2.2L16.4,38c-0.6-0.6-1.5-0.6-2,0c-0.6,0.6-0.6,1.5,0,2l7.5,7.5c0.6,0.6,1.5,0.6,2,0
					s0.6-1.5,0-2L22.4,44l2.2-2.2L20.1,37.3z"/>
			</g>
		</g>
		<g>
			<g>
				<defs>
					<rect id="SVGID_3_" x="13.9" y="14.5" width="33.7" height="33.7"/>
				</defs>
				<clipPath id="SVGID_4_">
					<use xlink:href="#SVGID_3_"  style="overflow:visible;"/>
				</clipPath>
				<path class="st2" d="M47.1,14.9c-0.6-0.6-1.5-0.6-2,0l-6.5,6.5l-6.7-1.9c-0.5-0.1-1,0-1.4,0.4L19.3,31c-0.3,0.3-0.4,0.6-0.4,1
					c0,0.4,0.2,0.8,0.4,1l9.7,9.7c0.3,0.3,0.6,0.4,1,0.4s0.8-0.2,1-0.4l11.1-11.1c0.4-0.4,0.5-0.9,0.4-1.4l-1.9-6.7l6.5-6.5
					C47.7,16.4,47.7,15.5,47.1,14.9L47.1,14.9z M27.9,33.3c-0.2,0.2-0.5,0.3-0.8,0.3s-0.6-0.1-0.8-0.3l-2.5-2.5l1.6-1.6l2.5,2.5
					C28.3,32.2,28.3,32.9,27.9,33.3L27.9,33.3z M30.6,30.7C30.3,30.9,30,31,29.7,31s-0.6-0.1-0.8-0.3l-2.5-2.5l1.6-1.6l2.5,2.5
					C31,29.5,31,30.2,30.6,30.7L30.6,30.7z M33.2,28c-0.2,0.2-0.5,0.3-0.8,0.3s-0.6-0.1-0.8-0.3l-2.5-2.5l1.6-1.6l2.5,2.5
					C33.7,26.8,33.7,27.5,33.2,28L33.2,28z"/>
			</g>
		</g>
	</g>
</g>
<line class="st0" x1="12.5" y1="11.5" x2="49.4" y2="48.6"/>
</svg>
