<svg version="1.1" id="Layer_1" xmlns="http://www.w3.org/2000/svg" xmlns:xlink="http://www.w3.org/1999/xlink" x="0px" y="0px" viewBox="0 0 100 100" xml:space="preserve">
    <title>Steps arrow icon</title>
<path fill="#008288" class="st0" d="M65.4,51c-0.3,0-0.5-0.1-0.7-0.3l-30.9-30c-0.4-0.4-0.3-1,0.1-1.4c0.4-0.3,0.9-0.3,1.3,0l30.9,30c0.4,0.4,0.4,1,0,1.4
C66,50.9,65.7,51,65.4,51L65.4,51z"></path>
<path fill="#008288" class="st0" d="M34.6,81c-0.6,0-1-0.4-1-1c0-0.3,0.1-0.5,0.3-0.7l30.9-30c0.4-0.4,1.1-0.3,1.4,0.1c0.3,0.4,0.3,0.9,0,1.3l-30.9,30
C35.1,80.9,34.8,81,34.6,81z"></path>
</svg>
